<?xml version="1.0" encoding="utf-8"?>
<!-- Generator: Adobe Illustrator 22.1.0, SVG Export Plug-In . SVG Version: 6.00 Build 0)  -->
<svg version="1.1" id="Layer_1" xmlns="http://www.w3.org/2000/svg" xmlns:xlink="http://www.w3.org/1999/xlink" x="0px" y="0px"
	 viewBox="0 0 109.4 27.6" style="enable-background:new 0 0 109.4 27.6;" xml:space="preserve">
<g>
	<polygon points="40.1,22.5 40.1,18.2 42.1,18.2 42.1,9.2 40.1,9.2 40.1,4.7 52,4.7 52,9.2 50,9.2 50,18.2 52,18.2 52,22.5 	"/>
	<path d="M75.2,13.1v-0.3c0-1.6-0.5-4-2.6-4c-2.7,0-2.9,2.9-2.9,5c0,1.9,0.4,5,2.9,5c2.4,0,2.8-1.9,2.6-4h5.1v0.4v0.5
		c0,5.2-4.1,7.3-8.9,7.3c-6,0-10.1-2.9-10.1-9.2c0-5.3,3.3-9.4,8.8-9.4c2.6,0,3.9,0.9,5.3,2.8V4.7h4.9v8.4H75.2L75.2,13.1z"/>
	<polygon points="34.4,0.2 34.4,27 35.3,27 35.3,0.2 	"/>
	<polygon points="56.3,0.2 56.3,27 57.1,27 57.1,0.2 	"/>
	<polygon points="81,26.9 81.8,27.2 90.8,0.3 90.1,0 	"/>
	<path d="M6.9,18.2h1.6v4.5H0v-4.5h1.9v-9H0V4.7h13.5c0.5,1.5,1.1,3.1,1.6,4.7c0.5-1.6,1.1-3.2,1.8-4.7h11.7v4.5h-1.9v9h1.9v4.5
		H18.1v-4.5h1.5v-7.9L15,22.5h-3L7,10.6L6.9,18.2L6.9,18.2z"/>
	<path d="M98.1,22.5V18h1.9c-0.2-0.7-0.5-1.3-0.7-2.1h-4.5c-0.1,0.7-0.5,1.3-0.6,2.1h1.9v4.5h-7.5V18h1.6c1.5-4.5,2.9-9,4.5-13.5
		h8.1c1.5,4.5,2.9,9,4.4,13.5h2.2v4.5H98.1L98.1,22.5z M97.1,9c-0.2,1.2-1.2,3.6-1.6,4.9h3.2C98.3,12.8,97.4,10.4,97.1,9L97.1,9z"/>
</g>
</svg>
